<svg xmlns="http://www.w3.org/2000/svg" width="100%" height="40" preserveAspectRatio="none"><rect width="100%" height="40" fill="#15171c"/><line x1="0" y1="39" x2="100%" y2="39" stroke="#5b8cff" stroke-width="2"/><polyline points="0,10 150,10 162,22 300,22" fill="none" stroke="#5b8cff" stroke-width="2" stroke-linejoin="round"/><circle cx="305" cy="22" r="4" fill="none" stroke="#5b8cff" stroke-width="2"/><polyline points="0,16 120,16 132,28 210,28" fill="none" stroke="#5b8cff" stroke-width="2" stroke-linejoin="round" opacity="0.7"/><circle cx="215" cy="28" r="4" fill="none" stroke="#5b8cff" stroke-width="2" opacity="0.7"/><circle cx="150" cy="10" r="2.5" fill="#5b8cff"/><line x1="0" y1="4" x2="70" y2="4" stroke="#5b8cff" stroke-width="2" opacity="0.5"/><svg x="100%" y="0" overflow="visible"><g transform="scale(-1,1)"><polyline points="0,10 150,10 162,22 300,22" fill="none" stroke="#5b8cff" stroke-width="2" stroke-linejoin="round"/><circle cx="305" cy="22" r="4" fill="none" stroke="#5b8cff" stroke-width="2"/><polyline points="0,16 120,16 132,28 210,28" fill="none" stroke="#5b8cff" stroke-width="2" stroke-linejoin="round" opacity="0.7"/><circle cx="215" cy="28" r="4" fill="none" stroke="#5b8cff" stroke-width="2" opacity="0.7"/><circle cx="150" cy="10" r="2.5" fill="#5b8cff"/><line x1="0" y1="4" x2="70" y2="4" stroke="#5b8cff" stroke-width="2" opacity="0.5"/></g></svg></svg>